<?xml version="1.0" encoding="UTF-8"?>
<svg width="24px" height="24px" viewBox="0 0 24 24" version="1.1" xmlns="http://www.w3.org/2000/svg" xmlns:xlink="http://www.w3.org/1999/xlink">
    <!-- Generator: Sketch 47.1 (45422) - http://www.bohemiancoding.com/sketch -->
    <title>plus-icon</title>
    <desc>Created with Sketch.</desc>
    <defs></defs>
    <g id="Page-1" stroke="none" stroke-width="1" fill="none" fill-rule="evenodd">
        <g id="Family-Stability---Mobile" transform="translate(-15.000000, -5214.000000)" fill-rule="nonzero" fill="#015294">
            <g id="Q&amp;A" transform="translate(0.000000, 4556.000000)">
                <g id="Group-30" transform="translate(15.000000, 653.000000)">
                    <path d="M19,18 L19,16 C19,15.7291667 18.9010417,15.4947917 18.703125,15.296875 C18.5052083,15.0989583 18.2708333,15 18,15 L14,15 L14,11 C14,10.7291667 13.9010417,10.4947917 13.703125,10.296875 C13.5052083,10.0989583 13.2708333,10 13,10 L11,10 C10.7291667,10 10.4947917,10.0989583 10.296875,10.296875 C10.0989583,10.4947917 10,10.7291667 10,11 L10,15 L6,15 C5.72916667,15 5.49479167,15.0989583 5.296875,15.296875 C5.09895833,15.4947917 5,15.7291667 5,16 L5,18 C5,18.2708333 5.09895833,18.5052083 5.296875,18.703125 C5.49479167,18.9010417 5.72916667,19 6,19 L10,19 L10,23 C10,23.2708333 10.0989583,23.5052083 10.296875,23.703125 C10.4947917,23.9010417 10.7291667,24 11,24 L13,24 C13.2708333,24 13.5052083,23.9010417 13.703125,23.703125 C13.9010417,23.5052083 14,23.2708333 14,23 L14,19 L18,19 C18.2708333,19 18.5052083,18.9010417 18.703125,18.703125 C18.9010417,18.5052083 19,18.2708333 19,18 Z M24,17 C24,19.1770833 23.4635417,21.1848958 22.390625,23.0234375 C21.3177083,24.8619792 19.8619792,26.3177083 18.0234375,27.390625 C16.1848958,28.4635417 14.1770833,29 12,29 C9.82291667,29 7.81510417,28.4635417 5.9765625,27.390625 C4.13802083,26.3177083 2.68229167,24.8619792 1.609375,23.0234375 C0.536458333,21.1848958 0,19.1770833 0,17 C0,14.8229167 0.536458333,12.8151042 1.609375,10.9765625 C2.68229167,9.13802083 4.13802083,7.68229167 5.9765625,6.609375 C7.81510417,5.53645833 9.82291667,5 12,5 C14.1770833,5 16.1848958,5.53645833 18.0234375,6.609375 C19.8619792,7.68229167 21.3177083,9.13802083 22.390625,10.9765625 C23.4635417,12.8151042 24,14.8229167 24,17 Z" id="plus-icon"></path>
                </g>
            </g>
        </g>
    </g>
</svg>