<?xml version="1.0" encoding="UTF-8"?>
<svg width="50px" height="50px" viewBox="0 0 50 50" version="1.1" xmlns="http://www.w3.org/2000/svg" xmlns:xlink="http://www.w3.org/1999/xlink">
    <!-- Generator: Sketch 47.1 (45422) - http://www.bohemiancoding.com/sketch -->
    <title>icon-employee-retention</title>
    <desc>Created with Sketch.</desc>
    <defs></defs>
    <g id="Symbols" stroke="none" stroke-width="1" fill="none" fill-rule="evenodd">
        <g id="icon-employee-retention" fill="#FEFEFE">
            <path d="M43.0911286,7.69601984 C47.0690256,11.8637106 49.6066775,17.3974959 49.9957139,23.4342783 C50.0678477,24.5594895 49.2208831,25.5311886 48.104835,25.6046784 C46.9879764,25.6773517 46.0243008,24.8248695 45.9513565,23.6996583 C45.626349,18.6517226 43.5052903,14.0218623 40.1693033,10.5253789 C36.8316953,7.02971191 32.3018529,4.68048655 27.132532,4.17993905 C26.4557708,4.11461474 25.7838725,4.08276914 25.1184582,4.08276914 C18.1182348,4.08031948 11.7858572,7.63396175 7.990321,13.1652974 L9.61130593,13.8707999 C9.87147401,13.9826678 10.0862545,14.1753745 10.2248487,14.3982937 C10.3642534,14.622846 10.4339558,14.8759777 10.4339558,15.131559 C10.4380082,15.5324869 10.248353,15.9611777 9.88444189,16.2306405 L3.79115955,20.8008922 L3.79115955,20.8017088 C3.54963279,20.9829837 3.25704501,21.0744378 2.97985659,21.0728047 C2.65160714,21.0728047 2.34199902,20.9552209 2.09479882,20.74455 C1.84759862,20.5371453 1.66523782,20.2170562 1.62552368,19.8594057 L0.743707885,12.2581061 L0.734792467,12.0956119 C0.733981975,11.7101985 0.897701453,11.3566307 1.14490165,11.1165638 C1.39129136,10.8756804 1.72683524,10.7270676 2.09560931,10.7262511 C2.27634913,10.7254345 2.46357289,10.7638126 2.63701828,10.8397521 L2.63620779,10.8397521 L4.20775267,11.5223911 C8.68005009,4.52779098 16.4615882,0.00326621532 25.1184582,0 C25.9127408,0 26.7126969,0.03837803 27.5191369,0.116767198 C33.6788796,0.708768723 39.1156631,3.52669599 43.0911286,7.69601984 Z M49.2358102,37.4678854 L49.2358102,37.4670842 L49.2455191,37.6265158 C49.2463282,38.0054663 49.0820855,38.3515691 48.8353171,38.5863101 C48.5893576,38.8242558 48.2543998,38.9700676 47.8862697,38.9708688 C47.7066546,38.9708688 47.5205669,38.9340152 47.3466153,38.859507 L47.3474244,38.859507 L47.3466153,38.859507 L45.872477,38.2297922 C41.4338804,45.2295608 33.5793607,49.7689552 24.8364744,49.7705576 C24.044388,49.7705576 23.2450199,49.7345052 22.4416064,49.6575935 C16.292621,49.0759485 10.8653323,46.3119332 6.89680952,42.2211905 C2.92585949,38.1304479 0.392639326,32.7025627 0.0042823543,26.7787572 C-0.0677255008,25.6747534 0.776950912,24.7221695 1.89104997,24.6500648 C3.00595811,24.5787612 3.96875977,25.4151763 4.04076763,26.5191801 C4.36601659,31.4711739 6.48337116,36.0145741 9.81272312,39.4451578 C13.1453114,42.8741391 17.6664338,45.1798887 22.826727,45.6702009 C23.5023064,45.7334929 24.1722221,45.7647383 24.8364744,45.7647383 C31.9256073,45.7671418 38.3270247,42.1803312 42.0965145,36.6170493 L40.3845075,35.8847856 C40.1247938,35.7758273 39.9103884,35.5867526 39.7720362,35.3672337 C39.6320659,35.1477148 39.5632944,34.8985529 39.5624853,34.6477886 C39.559249,34.2544171 39.7477639,33.8338061 40.1110395,33.569422 L46.1920624,29.0869102 L46.1936806,29.0861091 L46.1920624,29.0869102 C46.1928715,29.0861091 46.1936806,29.0861091 46.1944896,29.0861091 C46.4347855,28.9066484 46.7276714,28.816918 47.0035667,28.8185203 C47.3320519,28.8193215 47.6419284,28.9346891 47.8878879,29.1405882 C48.1346564,29.3456862 48.3158896,29.6589412 48.3563435,30.0090498 L49.2358102,37.4678854 Z M14.0701492,33.3132258 C14.0701492,28.4404523 18.7949548,25.6508137 24.6235799,25.6508137 C30.4505673,25.6508137 35.1753729,28.4404523 35.1753729,33.3132258 L35.1753729,36.8861619 C35.1753729,37.3412667 34.8011552,37.7106856 34.3393198,37.7106856 L14.9062023,37.7106856 C14.4443669,37.7106856 14.0701492,37.3412667 14.0701492,36.8861619 L14.0701492,33.3132258 Z M31.1553303,18.1125588 C31.1553303,21.7210922 28.2315578,24.6458244 24.6231785,24.6458244 C21.0147991,24.6458244 18.0901918,21.7210922 18.0901918,18.1125588 C18.0901918,14.5056953 21.0147991,11.5809631 24.6231785,11.5809631 C28.2315578,11.5809631 31.1553303,14.5056953 31.1553303,18.1125588 Z"></path>
        </g>
    </g>
</svg>