<?xml version="1.0" encoding="UTF-8"?>
<svg width="50px" height="50px" viewBox="0 0 50 50" version="1.1" xmlns="http://www.w3.org/2000/svg" xmlns:xlink="http://www.w3.org/1999/xlink">
    <!-- Generator: Sketch 47.1 (45422) - http://www.bohemiancoding.com/sketch -->
    <title>icon-stopwatch</title>
    <desc>Created with Sketch.</desc>
    <defs></defs>
    <g id="Symbols" stroke="none" stroke-width="1" fill="none" fill-rule="evenodd">
        <g id="icon-stopwatch" fill="#FEFEFE">
            <path d="M24.9628398,44.3683424 C24.6392923,44.3882022 24.3140899,44.4022695 23.9855775,44.4022695 L23.98475,44.4022695 C15.5534834,44.4022695 8.71761209,37.5680321 8.71761209,29.1350846 C8.71761209,20.7004822 15.5534834,13.8670723 23.98475,13.8670723 L23.9855775,13.8670723 C24.3140899,13.8670723 24.6392923,13.8811396 24.9628398,13.9018269 C32.9398159,14.4065956 39.2535428,21.0289956 39.2535428,29.1350846 C39.2535428,37.2395187 32.9398159,43.8635737 24.9628398,44.3683424 M46.7315442,14.289092 L43.9445675,10.7408162 C43.4621425,10.1259914 42.5734213,10.0192452 41.9585983,10.5016717 C41.3446029,10.9832707 41.237857,11.8719946 41.720282,12.4868195 L42.5179796,13.5029768 L39.693766,15.7280966 C37.4521033,13.0271703 34.5410035,10.9121066 31.2285725,9.62453263 L31.2285725,7.56160083 C31.2285725,6.17721057 30.1056724,5.05430705 28.7212864,5.05430705 L26.3852902,5.05430705 C26.4390769,4.84412467 26.4754863,4.6248399 26.4754863,4.3923153 C26.4754863,4.01994493 26.3935651,3.67488173 26.2636496,3.36953804 L27.7994657,3.36953804 C28.7295613,3.36953804 29.4842296,2.61486743 29.4842296,1.68476902 C29.4842296,0.753843111 28.7295613,0 27.7994657,0 L20.8791907,0 C19.9490952,0 19.1952544,0.753843111 19.1952544,1.68476902 C19.1952544,2.61486743 19.9490952,3.36953804 20.8791907,3.36953804 L22.8966044,3.36953804 C22.7658614,3.67488173 22.6847677,4.01994493 22.6847677,4.3923153 C22.6847677,4.6248399 22.7211771,4.84412467 22.7749638,5.05430705 L20.1369347,5.05430705 C18.7525487,5.05430705 17.6296487,6.17721057 17.6296487,7.56160083 L17.6296487,9.13796869 C8.85166501,11.8355851 2.63061663,20.1775087 3.01705313,29.787974 C3.15110605,33.1053802 4.06134191,36.2068116 5.55992113,38.9300802 C9.17190254,45.7767299 16.4868889,50.3155109 24.7352808,49.98286 C36.1744632,49.5227757 45.0782249,39.8750734 44.618142,28.4366833 C44.4849166,25.1225871 43.5771632,22.0252932 42.0818939,19.3028521 C41.7103522,18.5986584 41.2982636,17.9201168 40.8514205,17.2672275 L43.7079062,15.017283 L44.5080862,16.0359228 C44.9896837,16.6499201 45.8784049,16.7574938 46.4932279,16.2750673 C47.1072234,15.7926408 47.2139692,14.9039169 46.7315442,14.289092 M23.9935213,31.0040529 C23.019569,31.0040529 22.2293187,30.2129727 22.2293187,29.2381899 C22.2293187,28.2625795 23.019569,27.4706719 23.9935213,27.4706719 C23.9935213,27.4706719 23.9935213,27.4714994 23.9943488,27.4714994 L23.9951763,29.1769556 L25.1313162,30.5787232 C24.8226635,30.8402099 24.4287796,31.0040529 23.9935213,31.0040529 M23.986074,15.9296731 L23.9935213,26.5281611 C23.9918664,26.5281611 23.9893839,26.5273336 23.9877289,26.5273336 C22.5214217,26.5273336 21.3356326,27.7114714 21.3356326,29.1753006 C21.3356326,30.6399574 22.5214217,31.8257501 23.9877289,31.8257501 C24.6215841,31.8257501 25.2033076,31.6031554 25.659253,31.2299576 L32.2783227,39.4014183 C35.2721712,36.9785285 37.1911139,33.2771671 37.1911139,29.1347537 C37.1911139,21.8536718 31.2679609,15.9296731 23.986074,15.9296731"></path>
        </g>
    </g>
</svg>