<?xml version="1.0" encoding="UTF-8"?>
<svg width="50px" height="50px" viewBox="0 0 50 50" version="1.1" xmlns="http://www.w3.org/2000/svg" xmlns:xlink="http://www.w3.org/1999/xlink">
    <!-- Generator: Sketch 47.1 (45422) - http://www.bohemiancoding.com/sketch -->
    <title>icon-checklist</title>
    <desc>Created with Sketch.</desc>
    <defs></defs>
    <g id="Symbols" stroke="none" stroke-width="1" fill="none" fill-rule="evenodd">
        <g id="icon-checklist" fill="#FFFFFF">
            <path d="M32.1429638,22.3657594 C30.4156104,22.9792419 28.8205558,23.8690583 27.4207487,24.9989331 L7.14275045,24.9989331 L7.14275045,21.4279313 L32.1429638,21.4279313 L32.1429638,22.3657594 Z M24.1446453,28.5708951 C23.4052655,29.6730298 22.8013853,30.8711879 22.3500755,32.1418969 L7.14317722,32.1418969 L7.14317722,28.5708951 L24.1446453,28.5708951 Z M24.1466725,46.428358 C25.0524928,47.7780196 26.1588952,48.9804454 27.4200019,49.9993598 L1.78603436,49.9993598 C0.800194607,49.9993598 0,49.2002322 0,48.2133255 L0,12.5001067 L12.5001067,0 L37.5003201,0 C38.4861598,0 39.2852875,0.799127681 39.2852875,1.78496744 L39.2852875,21.539105 C38.6942104,21.4729556 38.0999326,21.4281447 37.5003201,21.4281447 C36.895373,21.4281447 36.302162,21.4676209 35.7142857,21.5337703 L35.7142857,3.56993487 L14.2861411,3.56993487 L14.2861411,14.2840072 L3.57206873,14.2840072 L3.57206873,46.428358 L24.1466725,46.428358 Z M21.428358,17.8568228 L21.428358,14.2847541 L32.1424304,14.2847541 L32.1424304,17.8568228 L21.428358,17.8568228 Z M7.14307053,35.7137523 L21.5295026,35.7137523 C21.4654871,36.3005616 21.4292116,36.8959064 21.4292116,37.4987197 C21.4292116,38.1036668 21.4654871,38.6979447 21.5295026,39.2847541 L7.14307053,39.2847541 L7.14307053,35.7137523 Z M48.5255081,31.6075803 C49.46547,33.3626738 50,35.368495 50,37.4991465 C50,44.4032255 44.4039724,49.9992532 37.4998933,49.9992532 C30.5958142,49.9992532 24.9997866,44.4032255 24.9997866,37.4991465 C24.9997866,30.5961343 30.5958142,24.9990398 37.4998933,24.9990398 C40.6227861,24.9990398 43.4757466,26.1470523 45.666146,28.0397793 L36.8757415,38.9512329 L32.9206463,34.4850801 L29.5790336,37.4458002 L29.5779667,37.4458002 L35.2870885,43.8900341 C35.7085243,44.3658831 36.3230738,44.642217 36.9589618,44.642217 L37.0101742,44.6411501 C37.6641999,44.6262131 38.2851509,44.3189384 38.6959175,43.8100146 L48.5255081,31.6075803 Z"></path>
        </g>
    </g>
</svg>