<?xml version="1.0" encoding="UTF-8"?>
<svg width="24px" height="24px" viewBox="0 0 24 24" version="1.1" xmlns="http://www.w3.org/2000/svg" xmlns:xlink="http://www.w3.org/1999/xlink">
    <!-- Generator: Sketch 47.1 (45422) - http://www.bohemiancoding.com/sketch -->
    <title>icon-minus5</title>
    <desc>Created with Sketch.</desc>
    <defs></defs>
    <g id="Page-1" stroke="none" stroke-width="1" fill="none" fill-rule="evenodd">
        <g id="Standard---Desktop" transform="translate(-73.000000, -3288.000000)" fill-rule="nonzero" fill="#015294">
            <g id="Q&amp;A-Section" transform="translate(-2.000000, 3040.000000)">
                <path d="M94,261 L94,259 C94,258.729167 93.9010417,258.494792 93.703125,258.296875 C93.5052083,258.098958 93.2708333,258 93,258 L81,258 C80.7291667,258 80.4947917,258.098958 80.296875,258.296875 C80.0989583,258.494792 80,258.729167 80,259 L80,261 C80,261.270833 80.0989583,261.505208 80.296875,261.703125 C80.4947917,261.901042 80.7291667,262 81,262 L93,262 C93.2708333,262 93.5052083,261.901042 93.703125,261.703125 C93.9010417,261.505208 94,261.270833 94,261 Z M99,260 C99,262.177083 98.4635417,264.184896 97.390625,266.023438 C96.3177083,267.861979 94.8619792,269.317708 93.0234375,270.390625 C91.1848958,271.463542 89.1770833,272 87,272 C84.8229167,272 82.8151042,271.463542 80.9765625,270.390625 C79.1380208,269.317708 77.6822917,267.861979 76.609375,266.023438 C75.5364583,264.184896 75,262.177083 75,260 C75,257.822917 75.5364583,255.815104 76.609375,253.976562 C77.6822917,252.138021 79.1380208,250.682292 80.9765625,249.609375 C82.8151042,248.536458 84.8229167,248 87,248 C89.1770833,248 91.1848958,248.536458 93.0234375,249.609375 C94.8619792,250.682292 96.3177083,252.138021 97.390625,253.976562 C98.4635417,255.815104 99,257.822917 99,260 Z" id="icon-minus5"></path>
            </g>
        </g>
    </g>
</svg>