<?xml version="1.0" encoding="UTF-8"?>
<svg width="124px" height="40px" viewBox="0 0 124 40" version="1.1" xmlns="http://www.w3.org/2000/svg" xmlns:xlink="http://www.w3.org/1999/xlink">
    <!-- Generator: Sketch 47.1 (45422) - http://www.bohemiancoding.com/sketch -->
    <title>two Color Logo</title>
    <desc>Created with Sketch.</desc>
    <defs></defs>
    <g id="Page-1" stroke="none" stroke-width="1" fill="none" fill-rule="evenodd">
        <g id="Standard---Desktop" transform="translate(-598.000000, -25.000000)">
            <g id="Header" transform="translate(-3.000000, -1.000000)">
                <g id="two-Color-Logo" transform="translate(601.000000, 26.000000)">
                    <path d="M66.156549,39.3567843 C76.0208627,39.3567843 78.2436078,32.928549 78.2436078,28.5152157 L78.2436078,15.5191373 L70.9706667,15.5191373 L70.9706667,28.0195294 C70.9706667,31.4469804 69.0498824,32.9450196 66.156549,32.9450196 C63.2561569,32.9450196 61.3369412,31.4469804 61.3369412,28.0195294 L61.3369412,15.5191373 L54.064,15.5191373 L54.064,28.5152157 C54.064,32.928549 56.2851765,39.3567843 66.156549,39.3567843" id="Fill-1" fill="#FFFFFF"></path>
                    <path d="M12.0941176,39.3567843 C21.9607843,39.3567843 24.1835294,32.928549 24.1835294,28.5152157 L24.1835294,15.5191373 L16.9121569,15.5191373 L16.9121569,28.0195294 C16.9121569,31.4469804 14.9898039,32.9450196 12.0941176,32.9450196 C9.19529412,32.9450196 7.27215686,31.4469804 7.27215686,28.0195294 L7.27215686,15.5191373 L0,15.5191373 L0,28.5152157 C0,32.928549 2.22901961,39.3567843 12.0941176,39.3567843" id="Fill-3" fill="#FFFFFF"></path>
                    <path d="M39.1253333,14.6164706 C29.257098,14.6164706 27.0312157,21.0431373 27.0312157,25.4564706 L27.0312157,38.4517647 L34.3057255,38.4517647 L34.3057255,25.9482353 C34.3057255,22.5294118 36.2265098,21.0282353 39.1253333,21.0282353 C42.0218039,21.0282353 43.9418039,22.5294118 43.9418039,25.9482353 L43.9418039,38.4517647 L51.2147451,38.4517647 L51.2147451,25.4564706 C51.2147451,21.0431373 48.9896471,14.6164706 39.1253333,14.6164706" id="Fill-5" fill="#FFFFFF"></path>
                    <path d="M100.045961,18.2986667 C99.7322353,17.8790588 97.8773333,14.6163137 91.9259608,14.6163137 C85.8647843,14.6163137 81.091451,17.6492549 81.091451,24.977098 L81.091451,38.4516078 L88.2012549,38.4516078 L88.2012549,24.964549 C88.2012549,22.6021961 89.4083137,20.7927843 92.3432157,20.7927843 C95.2851765,20.7927843 96.4875294,22.6021961 96.4875294,24.964549 L96.4875294,38.4516078 L103.598902,38.4516078 L103.598902,24.964549 C103.598902,22.6021961 104.802039,20.7927843 107.740863,20.7927843 C110.681255,20.7927843 111.885961,22.6021961 111.885961,24.964549 L111.885961,38.4516078 L118.991843,38.4516078 L118.991843,24.977098 C118.991843,17.6492549 114.216941,14.6163137 108.158902,14.6163137 C102.216157,14.6163137 100.356549,17.8790588 100.045961,18.2986667" id="Fill-7" fill="#FFFFFF"></path>
                    <path d="M33.1441569,5.85654902 C33.1441569,9.17105882 35.7888627,11.7200784 39.1221961,11.7200784 C42.4241569,11.7200784 45.0210196,9.17105882 45.0210196,5.85654902 C45.0210196,2.5467451 42.4241569,7.84313726e-05 39.1221961,7.84313726e-05 C35.7888627,7.84313726e-05 33.1441569,2.5467451 33.1441569,5.85654902" id="Fill-9" fill="#FFFFFF"></path>
                    <path d="M60.1700392,5.85654902 C60.1700392,9.17105882 62.8178824,11.7200784 66.1527843,11.7200784 C69.4531765,11.7200784 72.0492549,9.17105882 72.0492549,5.85654902 C72.0492549,2.5467451 69.4531765,7.84313726e-05 66.1527843,7.84313726e-05 C62.8178824,7.84313726e-05 60.1700392,2.5467451 60.1700392,5.85654902" id="Fill-11" fill="#FFFFFF"></path>
                    <path d="M94.0632941,5.85654902 C94.0632941,9.17105882 96.7111373,11.7200784 100.046039,11.7200784 C103.346431,11.7200784 105.94251,9.17105882 105.94251,5.85654902 C105.94251,2.5467451 103.346431,7.84313726e-05 100.046039,7.84313726e-05 C96.7111373,7.84313726e-05 94.0632941,2.5467451 94.0632941,5.85654902" id="Fill-13" fill="#FFFFFF"></path>
                    <path d="M121.198745,19.1010196 C119.808941,19.1010196 118.689725,17.9857255 118.689725,16.592 C118.689725,15.1998431 119.808941,14.0696471 121.198745,14.0696471 C122.580706,14.0696471 123.70698,15.1998431 123.70698,16.592 C123.70698,17.9857255 122.580706,19.1010196 121.198745,19.1010196 L121.198745,19.1010196 Z M121.198745,14.4327843 C120.006588,14.4327843 119.058353,15.4053333 119.058353,16.592 C119.058353,17.7716078 120.006588,18.7316078 121.198745,18.7316078 C122.382275,18.7316078 123.332078,17.7716078 123.332078,16.592 C123.332078,15.4053333 122.382275,14.4327843 121.198745,14.4327843 L121.198745,14.4327843 Z M121.765804,18.0139608 L120.866196,16.7065098 L120.780706,16.7065098 L120.780706,18.0139608 L120.376784,18.0139608 L120.376784,15.1716078 C120.566588,15.0790588 120.830118,15.0210196 121.099137,15.0210196 C121.694431,15.0210196 122.112471,15.3559216 122.112471,15.8610196 C122.112471,16.3496471 121.765804,16.6280784 121.297569,16.6767059 L122.254431,18.0139608 L121.765804,18.0139608 Z M121.064627,15.3559216 C120.957176,15.3559216 120.857569,15.377098 120.780706,15.3982745 L120.780706,16.4359216 L121.000314,16.4359216 C121.390118,16.4359216 121.694431,16.2931765 121.694431,15.8610196 C121.694431,15.4555294 121.34698,15.3559216 121.064627,15.3559216 L121.064627,15.3559216 Z" id="Fill-15" fill="#015294"></path>
                </g>
            </g>
        </g>
    </g>
</svg>